<svg width="32" height="32" viewBox="0 0 32 32" fill="none" xmlns="http://www.w3.org/2000/svg">
<path d="M23.9993 10.6667C23.9993 8.54496 23.1564 6.51012 21.6561 5.00983C20.1558 3.50954 18.121 2.66669 15.9993 2.66669C13.8775 2.66669 11.8427 3.50954 10.3424 5.00983C8.84212 6.51012 7.99927 8.54496 7.99927 10.6667C7.99927 20 3.99927 22.6667 3.99927 22.6667H27.9993C27.9993 22.6667 23.9993 20 23.9993 10.6667Z" stroke="#414B59" stroke-width="1.16304" stroke-linecap="round" stroke-linejoin="round"/>
<path d="M18.3062 27.9997C18.0718 28.4038 17.7353 28.7392 17.3305 28.9724C16.9257 29.2056 16.4667 29.3283 15.9995 29.3283C15.5324 29.3283 15.0734 29.2056 14.6686 28.9724C14.2637 28.7392 13.9273 28.4038 13.6929 27.9997" stroke="#414B59" stroke-width="1.16304" stroke-linecap="round" stroke-linejoin="round"/>
</svg>
